<svg width="11" height="6" viewBox="0 0 11 6" fill="none" xmlns="http://www.w3.org/2000/svg">
<path d="M5.68555 5.98047C5.88477 5.98047 6.06641 5.9043 6.21289 5.74609L10.6777 1.18164C10.8066 1.05273 10.8711 0.894531 10.8711 0.701172C10.8711 0.320312 10.5723 0.0214844 10.1973 0.0214844C10.0098 0.0214844 9.83398 0.0976562 9.70508 0.226562L5.68555 4.3457L1.66602 0.226562C1.53125 0.0976562 1.36133 0.0214844 1.17383 0.0214844C0.792969 0.0214844 0.494141 0.320312 0.494141 0.701172C0.494141 0.888672 0.564453 1.05273 0.693359 1.18164L5.1582 5.74609C5.31055 5.9043 5.48633 5.98047 5.68555 5.98047Z" fill="#808080"/>
</svg>
