<svg width="12" height="12" viewBox="0 0 12 12" fill="none" xmlns="http://www.w3.org/2000/svg">
  <path d="M0 4.85352C0 7.52965 2.19857 9.70705 4.90072 9.70705C5.96929 9.70705 6.94575 9.36645 7.75026 8.79473L10.7718 11.7932C10.913 11.9331 11.0972 12 11.2938 12C11.7114 12 12 11.6898 12 11.2823C12 11.0877 11.9263 10.9113 11.7973 10.7836L8.79427 7.79118C9.42682 6.97618 9.80143 5.96047 9.80143 4.85352C9.80143 2.17739 7.60287 0 4.90072 0C2.19857 0 0 2.17739 0 4.85352ZM1.05015 4.85352C1.05015 2.74911 2.77584 1.04004 4.90072 1.04004C7.02559 1.04004 8.75128 2.74911 8.75128 4.85352C8.75128 6.95793 7.02559 8.667 4.90072 8.667C2.77584 8.667 1.05015 6.95793 1.05015 4.85352Z" fill="#808080"/>
</svg>