<svg width="27" height="27" viewBox="0 0 27 27" fill="none" xmlns="http://www.w3.org/2000/svg">
<rect width="27" height="27" rx="4" fill="#FA454F"/>
<path d="M8 11.9493C8 14.4769 10.0565 16.5334 12.5841 16.5334C13.5836 16.5334 14.497 16.2117 15.2495 15.6718L18.0758 18.5038C18.208 18.6359 18.3803 18.6991 18.5641 18.6991C18.9547 18.6991 19.2247 18.4061 19.2247 18.0213C19.2247 17.8374 19.1558 17.6708 19.0352 17.5502L16.2261 14.7239C16.8178 13.9542 17.1682 12.9948 17.1682 11.9493C17.1682 9.42176 15.1117 7.36523 12.5841 7.36523C10.0565 7.36523 8 9.42176 8 11.9493ZM8.98231 11.9493C8.98231 9.96174 10.5965 8.34754 12.5841 8.34754C14.5717 8.34754 16.1859 9.96174 16.1859 11.9493C16.1859 13.9369 14.5717 15.5511 12.5841 15.5511C10.5965 15.5511 8.98231 13.9369 8.98231 11.9493Z" fill="white"/>
</svg>
