<svg id="svg-1" width="29" height="19" viewBox="0 0 19 13" fill="none" xmlns="http://www.w3.org/2000/svg">
  <path d="M17.832 2.29883L18.2832 1.83008C18.5117 1.5957 18.5234 1.26758 18.3008 1.03906L18.1426 0.886719C17.9434 0.681641 17.6094 0.716797 17.3867 0.933594L16.9238 1.38477L17.832 2.29883ZM11.1289 8.29297L12.3652 7.75977L17.3984 2.72656L16.4902 1.82422L11.4629 6.85742L10.9004 8.05859C10.8418 8.19336 10.9941 8.35156 11.1289 8.29297ZM2.22266 12.2305H14.375C15.4824 12.2305 16.0977 11.6328 16.0977 10.5312V5.5332L14.9375 6.69336V10.4375C14.9375 10.8945 14.6797 11.1582 14.2168 11.1582H2.375C1.91211 11.1582 1.6543 10.8945 1.6543 10.4375V5.55078C1.6543 5.08789 1.91211 4.83008 2.375 4.83008H11.9727L13.0449 3.76367H2.22266C1.10938 3.76367 0.494141 4.35547 0.494141 5.46289V10.5312C0.494141 11.6328 1.10938 12.2305 2.22266 12.2305ZM3.82227 8.86719C4.29688 8.86719 4.68945 8.47461 4.68945 7.99414C4.68945 7.51367 4.29688 7.12695 3.82227 7.12695C3.33594 7.12695 2.94922 7.51367 2.94922 7.99414C2.94922 8.47461 3.33594 8.86719 3.82227 8.86719ZM6.40625 8.86719C6.88672 8.86719 7.27344 8.47461 7.27344 7.99414C7.27344 7.51367 6.88672 7.12695 6.40625 7.12695C5.92578 7.12695 5.5332 7.51367 5.5332 7.99414C5.5332 8.47461 5.92578 8.86719 6.40625 8.86719ZM8.99023 8.86719C9.4707 8.86719 9.86328 8.47461 9.86328 7.99414C9.86328 7.51367 9.4707 7.12695 8.99023 7.12695C8.50977 7.12695 8.12305 7.51367 8.12305 7.99414C8.12305 8.47461 8.50977 8.86719 8.99023 8.86719Z" fill="#6188E5"/>
</svg>