<svg width="56" height="56" viewBox="0 0 42 42" fill="none" xmlns="http://www.w3.org/2000/svg">
  <circle cx="21" cy="21" r="21" fill="#EDEDED"/>
  <path d="M16.7007 27.3521H24.3877C25.7588 27.3521 26.4697 26.6411 26.4697 25.2891V17.564C26.4697 16.2056 25.7588 15.501 24.3877 15.501H16.7007C15.3296 15.501 14.6187 16.2056 14.6187 17.564V25.2891C14.6187 26.6475 15.3296 27.3521 16.7007 27.3521ZM17.6719 21.4233C17.6719 21.0552 17.9321 20.7949 18.2939 20.7949H19.938V19.1509C19.938 18.7827 20.1919 18.5225 20.5537 18.5225C20.9219 18.5225 21.1821 18.7827 21.1821 19.1509V20.7949H22.8325C23.188 20.7949 23.4546 21.0552 23.4546 21.4233C23.4546 21.7852 23.188 22.0391 22.8325 22.0391H21.1821V23.6831C21.1821 24.0449 20.9219 24.3052 20.5537 24.3052C20.1919 24.3052 19.938 24.0449 19.938 23.6831V22.0391H18.2939C17.9321 22.0391 17.6719 21.7852 17.6719 21.4233Z" fill="#C4C4C4"/>
</svg>